Coordinates
version=1
nRows=43
nColumns=12
inDegrees=yes

Units are S.I. units (second, meters, Newtons, ...)
Angles are in degrees

endheader
time	SC_y	SC_z	SC_x	AC_y	AC_z	AC_x	GH_y	GH_z	GH_yy	EL_x	PS_y
       0.0              -46.11          9.157          73.14          62.82         -7.661         -1.121          -82.2         -4.157          20.87          64.26          144.6
    0.0259              -46.11          9.156          73.14          62.82          -7.66          -1.12         -82.21          -4.15          20.84          64.27          144.6
    0.0518               -46.1          9.156          73.13          62.82          -7.66         -1.118         -82.22         -4.142          20.82          64.27          144.5
   0.07769               -46.1          9.155          73.12          62.81          -7.66         -1.115         -82.23         -4.133          20.78          64.27          144.5
    0.1036               -46.1          9.155          73.11          62.81          -7.66         -1.113         -82.24         -4.125          20.75          64.28          144.5
    0.1295               -46.1          9.155           73.1           62.8         -7.659         -1.111         -82.25         -4.115          20.72          64.28          144.5
    0.1554               -46.1          9.154          73.09           62.8         -7.659         -1.108         -82.26         -4.105          20.68          64.28          144.5
    0.1813               -46.1          9.153          73.08          62.79         -7.659         -1.105         -82.28         -4.094          20.64          64.29          144.5
    0.2072               -46.1          9.153          73.06          62.78         -7.658         -1.102         -82.29         -4.082           20.6          64.29          144.4
    0.2331               -46.1          9.152          73.05          62.78         -7.658         -1.099         -82.31          -4.07          20.55           64.3          144.4
     0.259               -46.1          9.151          73.04          62.77         -7.658         -1.096         -82.32         -4.056           20.5           64.3          144.4
    0.2849              -46.09          9.151          73.02          62.76         -7.657         -1.092         -82.34         -4.042          20.45          64.31          144.3
    0.3108              -46.09           9.15           73.0          62.75         -7.657         -1.088         -82.36         -4.026          20.39          64.31          144.3
    0.3367              -46.09          9.149          72.98          62.74         -7.656         -1.084         -82.38         -4.009          20.33          64.32          144.3
    0.3626              -46.09          9.148          72.96          62.73         -7.656         -1.079          -82.4         -3.991          20.26          64.32          144.2
    0.3885              -46.09          9.147          72.94          62.72         -7.655         -1.074         -82.42         -3.971          20.19          64.33          144.2
    0.4144              -46.09          9.146          72.92          62.71         -7.655         -1.069         -82.45          -3.95          20.11          64.34          144.2
    0.4403              -46.08          9.145          72.89           62.7         -7.654         -1.063         -82.47         -3.926          20.02          64.35          144.1
    0.4662              -46.08          9.143          72.87          62.69         -7.653         -1.056          -82.5         -3.901          19.93          64.36          144.1
    0.4921              -46.08          9.142          72.84          62.67         -7.653         -1.049         -82.54         -3.873          19.83          64.37          144.0
     0.518              -46.08           9.14           72.8          62.65         -7.652         -1.041         -82.57         -3.842          19.71          64.38          144.0
    0.5439              -46.07          9.138          72.77          62.64         -7.651         -1.033         -82.61         -3.808          19.59          64.39          143.9
    0.5698              -46.07          9.136          72.73          62.62          -7.65         -1.023         -82.66         -3.771          19.45          64.41          143.8
    0.5957              -46.07          9.134          72.68          62.59         -7.649         -1.013         -82.71          -3.73           19.3          64.42          143.7
    0.6216              -46.06          9.132          72.63          62.57         -7.647         -1.001         -82.76         -3.684          19.13          64.44          143.6
    0.6474              -46.06          9.129          72.58          62.54         -7.646        -0.9882         -82.82         -3.632          18.94          64.46          143.5
    0.6733              -46.05          9.126          72.52          62.51         -7.644        -0.9736         -82.89         -3.575          18.73          64.48          143.4
    0.6992              -46.05          9.123          72.45          62.47         -7.642        -0.9571         -82.97          -3.51          18.49           64.5          143.3
    0.7251              -46.04          9.119          72.37          62.44          -7.64        -0.9386         -83.05         -3.437          18.22          64.53          143.1
     0.751              -46.03          9.115          72.28          62.39         -7.638        -0.9175         -83.15         -3.354          17.92          64.56          143.0
    0.7769              -46.02           9.11          72.17          62.34         -7.635        -0.8935         -83.26         -3.259          17.57          64.59          142.8
    0.8028              -46.01          9.104          72.06          62.28         -7.632        -0.8658         -83.39          -3.15          17.17          64.63          142.6
    0.8287               -46.0          9.097          71.92          62.21         -7.629         -0.834         -83.54         -3.025          16.71          64.68          142.3
    0.8546              -45.99           9.09          71.76          62.13         -7.625        -0.7969         -83.71         -2.879          16.17          64.73          142.0
    0.8805              -45.97          9.081          71.58          62.04          -7.62        -0.7536         -83.91         -2.708          15.55           64.8          141.7
    0.9064              -45.95           9.07          71.36          61.93         -7.614        -0.7025         -84.15         -2.507          14.81          64.87          141.3
    0.9323              -45.93          9.057           71.1           61.8         -7.608        -0.6418         -84.43         -2.268          13.93          64.96          140.8
    0.9582               -45.9          9.042          70.79          61.65           -7.6        -0.5691         -84.77         -1.981          12.87          65.07          140.3
    0.9841              -45.87          9.024          70.42          61.46          -7.59         -0.481         -85.18         -1.634           11.6          65.19          139.6
      1.01              -45.83          9.002          69.96          61.23         -7.578        -0.3735         -85.68         -1.211          10.04          65.35          138.7
     1.036              -45.78          8.974           69.4          60.95         -7.563        -0.2408         -86.29         -0.688          8.122          65.54          137.7
     1.062              -45.72           8.94          68.69           60.6         -7.545       -0.07529         -87.06       -0.03609          5.726          65.78          136.4
     1.088              -45.64          8.897          67.81          60.16         -7.522         0.1332         -88.03         0.7852          2.708          66.09          134.8
